<svg xmlns="http://www.w3.org/2000/svg" width="512" height="512" viewBox="0 0 512 512">
<defs>
  <linearGradient id="bg" x1="0" y1="0" x2="1" y2="1"><stop offset="0" stop-color="#F5FCFF"/><stop offset="1" stop-color="#EAF9F5"/></linearGradient>
  <linearGradient id="shell" x1="0" y1="0" x2="0" y2="1"><stop offset="0" stop-color="#FFFFFF"/><stop offset="1" stop-color="#E7F1F6"/></linearGradient>
  <filter id="shadow" x="-30%" y="-30%" width="160%" height="160%"><feDropShadow dx="0" dy="10" stdDeviation="12" flood-color="#42647A" flood-opacity="0.16"/></filter>
  <filter id="soft" x="-30%" y="-30%" width="160%" height="160%"><feDropShadow dx="0" dy="5" stdDeviation="7" flood-color="#42647A" flood-opacity="0.12"/></filter>
</defs>
<circle cx="256" cy="256" r="238" fill="url(#bg)" stroke="#CFE6EF" stroke-width="4"/>
<path d="M80 112 l10 22 23 10-23 10-10 23-10-23-23-10 23-10z" fill="#68C8F0"/><path d="M424 95 l7 16 17 7-17 7-7 17-7-17-17-7 17-7z" fill="#5FD7C7"/>
<g transform="translate(256 215) scale(0.92)">
<ellipse cx="0" cy="178" rx="118" ry="24" fill="#9FBBC8" opacity="0.22"/><rect x="-93" y="80" width="186" height="120" rx="62" fill="url(#shell)" stroke="#A9C0CC" stroke-width="5" filter="url(#soft)"/>
<circle cx="-89" cy="142" r="30" fill="url(#shell)" stroke="#A9C0CC" stroke-width="5"/><circle cx="89" cy="142" r="30" fill="url(#shell)" stroke="#A9C0CC" stroke-width="5"/><circle cx="-90" cy="145" r="13" fill="#40C8B7"/><circle cx="90" cy="145" r="13" fill="#40C8B7"/>
<rect x="-126" y="-78" width="252" height="180" rx="82" fill="url(#shell)" stroke="#9FB7C4" stroke-width="6" filter="url(#shadow)"/><rect x="-96" y="-45" width="192" height="114" rx="48" fill="#102331"/>
<path d="M-58 5 Q-42 -16 -26 5" fill="none" stroke="#6DE5D4" stroke-width="12" stroke-linecap="round"/><path d="M26 5 Q42 -16 58 5" fill="none" stroke="#6DE5D4" stroke-width="12" stroke-linecap="round"/><path d="M-20 39 Q0 56 20 39" fill="none" stroke="#6DE5D4" stroke-width="7" stroke-linecap="round"/>
<line x1="0" y1="-80" x2="0" y2="-119" stroke="#536E7A" stroke-width="8"/><circle cx="0" cy="-132" r="17" fill="#5FD7C7" stroke="#153244" stroke-width="6"/><circle cx="-6" cy="-138" r="5" fill="#DFFFF9"/>
<circle cx="0" cy="140" r="28" fill="#E7FAF6" stroke="#B9DCD5" stroke-width="4"/><path d="M-12 142 L-2 152 L16 128" fill="none" stroke="#1EAA96" stroke-width="7" stroke-linecap="round" stroke-linejoin="round"/>
<g transform="translate(15 140) rotate(-5)"><rect x="-100" y="-16" width="200" height="112" rx="14" fill="#FFFDF6" stroke="#173249" stroke-width="5"/><line x1="0" y1="-8" x2="0" y2="88" stroke="#B8C8CF" stroke-width="4"/><path d="M-77 15 h42 M-77 38 h55 M-77 61 h45" stroke="#54BDAE" stroke-width="6" stroke-linecap="round"/><path d="M25 20 l10 10 18-22 M25 50 l10 10 18-22" fill="none" stroke="#1EAA96" stroke-width="6" stroke-linecap="round" stroke-linejoin="round"/></g>
<circle cx="-92" cy="143" r="24" fill="url(#shell)" stroke="#9FB7C4" stroke-width="5"/><circle cx="92" cy="143" r="24" fill="url(#shell)" stroke="#9FB7C4" stroke-width="5"/>
</g>
</svg>
